<svg xmlns="http://www.w3.org/2000/svg" viewBox="0 0 108 108"><defs><linearGradient id="g" x1="0" y1="0" x2="1" y2="1"><stop offset="0" stop-color="#FF5D97"/><stop offset="1" stop-color="#7C6CFF"/></linearGradient></defs><circle cx="54" cy="54" r="42" fill="#17102B"/><path d="M54 16A38 38 0 1 1 24 31" fill="none" stroke="url(#g)" stroke-width="8" stroke-linecap="round"/><path d="M24 31A38 38 0 0 1 54 16" fill="none" stroke="#7C6CFF" stroke-width="8" stroke-linecap="round"/><path d="M39 33h30l-4 6c-3 4-6 7-11 10 5 3 8 6 11 10l4 6H39l4-6c3-4 6-7 11-10-5-3-8-6-11-10z" fill="#FFF3F7"/><path d="M46 40h16c-3 4-5 6-8 8-3-2-5-4-8-8zm0 18h16c-3-4-5-6-8-8-3 2-5 4-8 8z" fill="#17102B"/><circle cx="23" cy="27" r="5" fill="#FF5D97"/></svg>